<?xml version="1.0" encoding="utf-8" ?>
<svg xmlns="http://www.w3.org/2000/svg" xmlns:xlink="http://www.w3.org/1999/xlink" width="512" height="511">
	<defs>
		<linearGradient id="gradient_0" gradientUnits="userSpaceOnUse" x1="283.71088" y1="334.87085" x2="526.05408" y2="35.72728">
			<stop offset="0" stop-color="#973144"/>
			<stop offset="1" stop-color="#0029C8"/>
		</linearGradient>
	</defs>
	<path fill="url(#gradient_0)" d="M203.674 11.3074L483.362 11.3391C487.8 11.3385 498.444 9.75717 499.801 15.75L499.872 16.0513C500.248 17.7998 500.049 19.8715 500.044 21.6625L499.61 237.909L499.585 382.632L499.583 481.28C499.581 484.556 500.933 496.884 496.875 498.328L496.549 498.447C493.44 499.482 488.916 498.961 485.634 498.948L487 498.717C489.736 498.059 493 499.215 495.741 498.126L496.812 497.751C497.207 497.593 497.463 497.506 497.75 497.125L498.438 495.938C498.767 494.854 499.086 493.696 498.973 492.547L498.939 492.25C498.939 488.934 498.844 485.559 499 482.25L498.627 481.625L497.875 482.25C497.651 482.921 497.127 483.389 496.625 483.873L496.25 483.5C495.889 483.787 496.071 483.749 495.751 483.749L493.25 482.5C492.889 482.787 493.071 482.749 492.751 482.749L492.688 482.312L491 481.75L489.875 481.873L488.438 481.249C488.127 481.044 488.324 481.136 487.812 481.062L487.562 481.249C487.158 481.132 486.79 481.064 486.375 481L486.125 481.373C485.505 481.373 485.412 481.32 484.875 481C484.763 482.155 485.161 483.99 484.5 484.873L483.984 484.387C484.522 483.532 484.448 482.519 484.464 481.625L484.534 379.099L484.518 230.409L484.53 105.851L325.608 105.735C328.04 104.874 336.77 105.372 339.5 105.439L363.625 105.377C365.145 105.376 366.709 105.507 368.25 105.439L369.125 105.377C372.363 105.55 375.653 105.443 378.898 105.443L441.875 105.372L441.875 104.627C442.329 104.635 442.771 104.662 443.219 104.572L443.501 104.501C444.439 104.279 444.278 103.942 445.125 103.377C445.14 102.164 445.287 101.088 444.627 100L444.001 98.9988C443.651 98.3344 443.461 97.8049 442.783 97.3978L441.875 96.8725L440.75 96L439.625 96.1225C439.285 95.7159 439.414 95.7871 439 95.5613L438.75 94.875C438.439 94.6395 437.174 93.4229 436.812 93.0625L436.562 93.2488C436.023 92.7085 435.769 92.4307 435.001 92.2488L434.5 92.1225C433.409 91.5573 432.27 92.2596 431.25 91.5L430.25 91.5613C427.542 90.7852 417.76 91.131 414.958 91.3101C408.6 91.7164 400.278 91.6387 393.75 91.3113L337 91.3113C332.408 91.7814 327.398 91.4188 322.806 91.1286L338.829 91.0613L484.501 90.9578C484.764 90.6641 484.66 90.5333 484.648 90.1364L484.629 26.5948L235.39 26.5029L193.625 26.3772C201.405 24.93 228.559 27.1384 230.627 25.8447L230.938 25.6483C231.777 25.9267 231.847 24.8516 232.75 24.6275L232.877 24.375C233.308 23.5489 233.278 21.6448 233.001 20.7488L232.877 20.375C232.136 17.6238 229.639 16.6752 230.322 13.9616L229.189 13.25L229 12.3725C227.795 11.3538 212.725 11.6426 210.625 11.75L204.625 11.7654C203.194 11.7548 201.398 12.0355 200.037 11.6481L203.674 11.3074Z"/>
	<defs>
		<linearGradient id="gradient_1" gradientUnits="userSpaceOnUse" x1="54.101776" y1="526.13452" x2="398.38568" y2="64.06694">
			<stop offset="0" stop-color="#FF611E"/>
			<stop offset="1" stop-color="#5E1F71"/>
		</linearGradient>
	</defs>
	<path fill="url(#gradient_1)" d="M84.5916 11.3621L203.674 11.3588L200.037 11.6481C201.398 12.0355 203.194 11.7548 204.625 11.7654L210.625 11.75C212.725 11.6426 227.795 11.3538 229 12.3725L229.189 13.25L230.322 13.9616C229.639 16.6752 232.136 17.6238 232.877 20.375L233.001 20.7488C233.278 21.6448 233.308 23.5489 232.877 24.375L232.75 24.6275C231.847 24.8516 231.777 25.9267 230.938 25.6483L230.627 25.8447C228.559 27.1384 201.405 24.93 193.625 26.3772L235.39 26.4866L484.629 26.5948L484.648 90.1364C484.66 90.5333 484.764 90.6641 484.501 90.9578L338.829 91.0652L322.806 91.1286C327.398 91.4188 332.408 91.7814 337 91.3113L393.75 91.3113C400.278 91.6387 408.6 91.7164 414.958 91.3101C417.76 91.131 427.542 90.7852 430.25 91.5613L431.25 91.5C432.27 92.2596 433.409 91.5573 434.5 92.1225L435.001 92.2488C435.769 92.4307 436.023 92.7085 436.562 93.2488L436.812 93.0625C437.174 93.4229 438.439 94.6395 438.75 94.875L439 95.5613C439.414 95.7871 439.285 95.7159 439.625 96.1225L440.75 96L441.875 96.8725L442.783 97.3978C443.461 97.8049 443.651 98.3344 444.001 98.9988L444.627 100C445.287 101.088 445.14 102.164 445.125 103.377C444.278 103.942 444.439 104.279 443.501 104.501L443.219 104.572C442.771 104.662 442.329 104.635 441.875 104.627L441.875 105.372L378.898 105.443C375.653 105.443 372.363 105.55 369.125 105.377L368.25 105.439C366.709 105.507 365.145 105.376 363.625 105.377L339.5 105.439C336.77 105.372 328.04 104.874 325.608 105.731L484.53 105.851L484.52 230.409L484.534 379.099L484.464 481.625C484.448 482.519 484.522 483.532 484.257 484.387L484.5 484.873C485.161 483.99 484.763 482.155 484.875 481C485.412 481.32 485.505 481.373 486.125 481.373L486.375 481C486.79 481.064 487.158 481.132 487.562 481.249L487.812 481.062C488.324 481.136 488.127 481.044 488.438 481.249L489.875 481.873L491 481.75L492.688 482.312L492.751 482.749C493.071 482.749 492.889 482.787 493.25 482.5L495.751 483.749C496.071 483.749 495.889 483.787 496.25 483.5L496.625 483.873C497.127 483.389 497.651 482.921 497.875 482.25L498.627 481.625L499 482.25C498.844 485.559 498.939 488.934 498.939 492.25L498.973 492.547C499.086 493.696 498.767 494.854 498.438 495.938L497.75 497.125C497.463 497.506 497.207 497.593 496.812 497.751L495.741 498.126C493 499.215 489.736 498.059 487 498.717L485.634 498.945L20.1315 499.385C18.0546 499.198 15.5787 497.948 14.2912 496.301L14.0578 495.993C11.8952 493.256 12.4423 488.547 12.4272 485.247L12.4195 30.3125C12.43 17.8779 9.71449 11.5808 24.9831 11.4011L32.6378 11.3732C34.0495 11.5853 35.8627 11.3845 37.3186 11.386L84.5916 11.3621Z"/>
	<path fill="#F6F7EB" d="M175.877 256.875L176.602 256.887C178.073 259.869 177.052 272.394 176.597 275.655C175.456 275.256 174.321 274.872 173.302 274.209C168.736 269.809 168.496 259.899 175.877 256.875Z"/>
	<path fill="#F6F7EB" d="M334.714 257.125C339.055 256.421 341.818 262.237 342.2 265.687C342.501 268.401 340.459 271.527 338.847 273.52C337.523 274.781 336.048 275.417 334.738 276.519L334.282 276.508C333.478 273.615 333.487 259.086 334.714 257.125Z"/>
	<path fill="#F6F7EB" d="M255.757 401.125L256.381 400.98C258.721 402.698 260.858 404.728 263.018 406.664L273.457 416.545C270.679 420.861 260.557 430.511 255.986 431.554C249.358 430.18 247.851 426.674 243.589 421.753L237.986 415.879C243.224 410.474 249.767 405.7 255.757 401.125Z"/>
	<path fill="#F6F7EB" d="M285.557 360.125C286.928 360.458 288.148 362.822 288.916 363.992C283.542 371.087 264.478 384.122 255.306 388.042C252.792 386.832 250.389 385.176 248.053 383.653L233.891 373.647C230.144 370.933 222.855 366.06 223.18 360.726C224.372 360.098 228.058 361.753 229.413 362.23C250.848 369.776 265.643 369.236 285.557 360.125Z"/>
	<path fill="#F6F7EB" d="M250.773 446.125C253.926 446.294 257.85 445.937 260.875 446.738C263.386 448.864 269.875 472.928 271.375 478.006C271.881 479.719 272.181 482.358 272.967 483.877L260.875 484.256L238.398 484.146L248.679 451.662C249.28 449.846 249.801 447.763 250.773 446.125Z"/>
	<path fill="#F6F7EB" d="M212.089 372.032C220.564 380.829 229.207 389.161 239.488 395.859C237.145 397.539 220.686 412.457 220.25 412.546L219.193 411.419L190.735 381.022L212.089 372.032Z"/>
	<path fill="#F6F7EB" d="M300.229 372.125C301.914 371.747 318.419 380.545 321.945 381.728L292.504 412.337C292.135 412.702 291.841 412.966 291.375 413.198C285.652 406.819 279.461 400.702 272.251 396.01C272.473 395.433 273.843 394.633 274.36 394.239L281.907 388.52C288.452 383.418 294.404 378.037 300.229 372.125Z"/>
	<path fill="#F6F7EB" d="M231.176 146.32C251.337 143.18 271.595 146.424 288.475 158.625C300.084 167.016 295.21 163.215 308.909 162.288C329.746 160.878 335.763 183.921 333.975 200.641C333.142 208.427 330.848 215.761 327.96 222.997C327.295 222.148 327.133 220.453 326.893 219.39L325.128 212.377C321.715 200.259 315.202 186.58 300.5 188.762C293.005 189.875 287.612 196.064 281.241 199.559C264.616 208.68 247.548 209.449 229.098 209.456L192.029 209.513C182.932 209.74 177.433 215.223 175.301 203.009C173.558 193.03 176.659 193.43 179.529 186.362C180.349 184.343 180.097 182.07 181.132 180.102C184.083 174.492 196.471 162.144 201.466 158.433C207.535 153.925 214.741 150.883 221.941 148.693L231.176 146.32Z"/>
	<path fill="#F6F7EB" d="M335.118 387.704L368.745 401.851C403.835 417.026 406.418 433.611 406.407 469.816L406.378 478.839C406.363 480.635 406.464 482.497 406.102 484.26L369.94 484.167L370.065 455.584C370.205 446.81 362.315 441.878 356.708 447.964C353.952 450.956 354.952 455.22 355.069 458.938L355.263 484.123L289.179 484.105C288.224 482.973 287.993 481.1 287.523 479.703L277.77 449.75C276.47 446.068 275.243 442.313 273.25 438.937C277.096 435.113 279.604 430.159 283.459 426.282C290.637 436.803 299.336 425.858 304.779 420.041L335.118 387.704Z"/>
	<path fill="#F6F7EB" d="M175.832 387.192C177.73 388.557 179.375 390.48 181.028 392.145L194.436 406.553C198.145 410.765 213.84 430.493 219.401 430.795C223.051 430.994 226.016 428.155 228.546 425.911C230.431 430.08 234.412 433.901 238.414 436.04L238.8 436.243C238.177 438.475 236.868 440.663 236.146 442.94L224.546 480.097C224.202 481.394 224.096 483.148 223.328 484.244L156.541 484.007L156.754 462.288C156.732 458.471 158.031 454.024 156.132 450.48C152.503 443.704 143.755 444.181 142.294 451.381L142.225 451.75C141.56 455.106 142.002 459.162 142.004 462.607L142.023 484.291L105.796 484.172C105.238 479.283 105.657 473.944 105.647 469.001L105.629 454.86C105.624 428.775 115.481 414.809 137.915 404.045L159.035 394.678C164.622 392.201 170.107 389.319 175.832 387.192Z"/>
	<path fill="#F6F7EB" d="M303.761 203.491L304.875 203.448C306.963 205.358 308.265 208.414 309.363 210.975L313.333 220.954C315.454 226.466 317.782 232.055 319.375 237.736L319.626 238.802C319.931 241.274 319.666 244.099 319.666 246.604L319.693 282.778C319.699 301.209 315.812 312.349 303.469 327.177C280.047 355.313 246.187 360.968 217.663 336.703C204.344 325.202 193.569 308.696 192.169 290.801C191.389 280.825 192.316 270.661 191.866 260.649C191.54 253.412 190.26 245.842 188.957 238.719L186.947 228.682C186.63 227.382 186.441 226.003 185.713 224.859L243.098 224.556C245.84 224.531 248.681 224.611 251.381 224.063L262.375 222.246C271.3 220.313 279.671 216.695 287.681 212.377C293.064 209.475 298.135 205.891 303.761 203.491Z"/>
	<path fill="#BB3148" d="M283.882 258.07C296.024 257.408 298.59 273.737 287.078 277.193C274.385 277.925 273.232 260.608 283.882 258.07Z"/>
	<path fill="#E94F37" d="M225.359 257.321C237.962 257.087 239.204 274.529 227.311 277.206C214.938 277.973 214.664 260.408 225.359 257.321Z"/>
	<path fill="#E94F37" d="M239.732 312.543C246.115 311.542 251.489 317.723 263.175 314.668C268.488 313.278 273.163 310.338 276.935 316.118C279.865 320.606 275.239 324.509 271.732 326.729C250.319 337.834 221.214 321.017 239.732 312.543Z"/>
	<path fill="#F6F7EB" d="M81.1403 26.5002L235.39 26.5002L484.629 26.5948L484.648 90.1364C484.66 90.5333 484.764 90.6641 484.501 90.9578L338.829 91.0652L210.139 91.1052L94.6138 91.0903L26.9272 91.1781L27.2791 26.5316L81.1403 26.5002Z"/>
	<path fill="#812E5F" d="M96.5498 51.5841L96.9016 51.5296C110.373 50.1805 112.901 66.0155 99.0668 67.3859C97.4023 67.498 95.3559 67.403 93.7568 66.9074L93.375 66.7817C83.6639 63.6812 85.2912 53.1505 96.5498 51.5841Z"/>
	<path fill="#BB3148" d="M54.5721 51.6039C59.5874 51.6354 74.0001 52.5761 69.4099 61.125C67.6318 64.4365 63.9448 65.9738 60.5202 66.8581L58.5642 67.125C49.7174 68.0483 39.4559 62.1884 46.7398 54.4241C48.8858 52.1366 51.6299 51.7799 54.5721 51.6039Z"/>
	<path fill="#45267F" d="M255.796 52.1333L441.584 52.0594C444.971 52.055 448.527 51.2075 451.21 53.7934C454.403 56.8698 454.245 62.1173 451.125 65.19C447.549 68.7115 442.008 67.3083 437.491 67.2535L262.33 66.6779L135.426 66.7371C124.237 66.8204 122.924 56.984 131.72 52.7945L132.125 52.6043C132.862 52.251 133.539 52.2098 134.347 52.1743L255.796 52.1333Z"/>
	<path fill="#F6F7EB" d="M100.352 105.7L216.944 105.73L325.608 105.735L484.53 105.851L484.52 230.409L484.534 379.099L484.464 481.625C484.448 482.519 484.522 483.532 484.257 484.387L420.808 484.272L420.855 459.017C420.864 453.53 421.158 447.851 420.405 442.407C417.902 424.313 407.54 407.214 392.227 397.127C383.027 391.068 372.391 386.867 362.261 382.63L316.219 363.24C310.187 360.548 305.221 357.884 300.724 353.047C303.696 347.218 309.011 342.75 313.333 337.944C324.307 325.742 332.075 309.339 333.972 293.014C344.232 291.422 354.526 280.102 356.059 270.167C358.039 257.343 351.922 244.526 338.4 242.457L342.588 227.537L348.003 207.756C350.784 194.688 349.262 177.409 341.925 166.211C334.757 155.271 323.145 146.553 309.508 147.818C296.591 149.017 305.489 151.596 293.434 143.826C284.473 138.05 274.205 134.344 263.859 131.968L256.934 130.69C249.022 128.979 235.65 130.558 227.978 132.148C214.754 134.113 191.143 143.018 185.575 154.806C184.777 156.495 184.554 158.497 184.095 160.305C181.572 159.041 180.635 157.877 177.869 158.828C170.93 161.213 168.432 169.229 170.629 175.749C156.987 187.229 153.997 214.784 171.233 222.136L174.379 243.12C170.05 243.722 166.16 244.524 162.734 247.431C147.397 260.448 158.085 291.582 176.763 292.588L177.215 292.61C177.19 306.163 190.651 329.513 199.217 338.985C202.258 342.349 205.714 345.45 208.548 348.981C213.872 355.614 204.069 358.956 199.616 361.073L145.637 384.52C138.884 387.453 131.928 390.139 125.5 393.744C107.088 404.068 93.8073 421.829 91.6321 443.203C91.0618 448.807 91.25 454.493 91.2432 460.121L91.2358 484.26L27.6557 484.146C26.8957 481.936 27.2993 478.307 27.29 475.921L27.2767 105.961L100.352 105.7Z"/>
	<path fill="#E94F37" d="M68.3717 265.343L114.664 265.481C117.351 265.481 120.133 265.32 122.805 265.554C130.39 266.216 132.956 278.212 122.562 279.24C117.965 279.256 112.9 279.695 108.262 279.71L71.6986 279.733C70.2196 279.73 68.573 279.864 67.1136 279.613C58.1654 278.078 60.3953 266.828 68.3717 265.343Z"/>
	<path fill="#E94F37" d="M115.144 185.325C118.594 185.295 124.358 184.336 126.949 186.89C130.979 190.864 130.179 198.603 124.068 199.613C122.096 199.939 119.988 199.803 117.994 199.805L75.1875 199.825C72.614 199.824 69.3857 200.172 66.8646 199.729C63.5996 199.155 60.543 194.654 61.1571 191.411L61.2179 191.125C62.399 185.32 68.7698 185.38 73.3631 185.363L115.144 185.325Z"/>
	<path fill="#812E5F" d="M398.497 345.988L439.448 345.986C442.254 345.988 444.93 345.512 447.161 347.503C450.723 350.683 451.822 355.164 448.21 358.704C445.991 360.88 443.01 360.452 440.168 360.461L433.02 360.465L392.407 360.521C390.493 360.533 388.138 360.804 386.33 360.147C380.205 357.922 380.767 349.199 386.653 346.811L387.542 346.434C388.695 345.996 390.166 346.077 391.384 346.06L398.497 345.988Z"/>
	<path fill="#E94F37" d="M70.6592 345.854L118.999 346.021C120.652 346.037 122.956 345.836 124.495 346.384L124.75 346.481C132.912 349.415 131.64 360.389 120.561 360.501L73.3907 360.453C66.915 360.445 62.8004 360.59 60.6113 353.136C62.2243 347.961 65.2929 346.242 70.6592 345.854Z"/>
	<path fill="#45267F" d="M391.382 265.346L438.953 265.415C443.6 265.363 449.99 264.812 450.505 271.341C450.918 276.565 447.164 280.168 442.158 280.26L395.523 280.109C393.251 280.117 390.888 280.25 388.625 280.033C380.574 279.263 378.899 266.32 391.382 265.346Z"/>
	<path fill="#E94F37" d="M89.4764 225.213L114.22 225.2C116.568 225.201 123.179 224.644 125.107 225.613L125.375 225.759C128.904 227.621 131.493 231.414 130.035 235.461C128 241.112 120.002 240.073 115.375 240.081L102.495 240.123L77.2944 240.063C74.0722 240.054 70.4249 240.356 67.2515 239.741C58.9505 238.132 59.8379 227.357 67.0817 225.69C69.9164 225.037 73.1873 225.236 76.087 225.227L89.4764 225.213Z"/>
	<path fill="#812E5F" d="M431.253 305.527L440.106 305.505C441.713 305.506 443.578 305.334 445.144 305.735C450.393 307.081 451.233 315.397 447.643 318.808C445.414 320.926 442.651 320.473 439.808 320.478L399.544 320.487L391.365 320.573C386.942 320.604 381.823 319.159 381.702 313.633C381.54 306.297 389.14 305.568 394.398 305.555L431.253 305.527Z"/>
	<path fill="#45267F" d="M441.423 185.231C446.825 184.847 452.089 188.378 450.361 194.347L450.274 194.625C448.398 200.859 443.758 200.185 438.68 199.961L391.02 199.832C376.88 199.186 380.773 186.548 387.577 185.453C389.397 185.16 391.402 185.321 393.251 185.319L441.423 185.231Z"/>
	<path fill="#45267F" d="M389.881 225.329L438.016 225.188C440.189 225.188 442.612 224.976 444.75 225.305C452.696 226.526 452.324 239.676 442.735 240.27L395.875 240.159C390.622 240.223 382.888 241.222 381.849 233.977C381.093 228.71 385.254 225.861 389.881 225.329Z"/>
	<path fill="#E94F37" d="M117.897 305.506C123.115 305.233 129.77 305.545 130.164 312.625C130.58 320.101 123.207 320.462 117.951 320.475L73.6001 320.494C67.1652 320.781 59.3653 318.936 61.9457 310.742C62.5866 308.707 63.6222 307.5 65.468 306.509L65.875 306.292C68.0002 305.143 72.1745 305.528 74.625 305.522L117.897 305.506Z"/>
</svg>
